<svg width="1024" height="1024" viewBox="0 0 1024 1024" fill="none" xmlns="http://www.w3.org/2000/svg">
  <defs>
    <linearGradient id="bg" x1="120" y1="80" x2="900" y2="940" gradientUnits="userSpaceOnUse">
      <stop stop-color="#E5484D"/>
      <stop offset="0.55" stop-color="#C62828"/>
      <stop offset="1" stop-color="#8F1018"/>
    </linearGradient>
    <linearGradient id="white" x1="188" y1="752" x2="822" y2="220" gradientUnits="userSpaceOnUse">
      <stop stop-color="#F8F8F8"/>
      <stop offset="0.5" stop-color="#FFFFFF"/>
      <stop offset="1" stop-color="#FFF5F5"/>
    </linearGradient>
    <radialGradient id="glow" cx="0" cy="0" r="1" gradientUnits="userSpaceOnUse" gradientTransform="translate(726 264) rotate(134.5) scale(520)">
      <stop stop-color="#FFFFFF" stop-opacity="0.18"/>
      <stop offset="1" stop-color="#FFFFFF" stop-opacity="0"/>
    </radialGradient>
    <filter id="shadow" x="-20%" y="-20%" width="140%" height="140%" filterUnits="objectBoundingBox">
      <feDropShadow dx="0" dy="22" stdDeviation="24" flood-color="#650A10" flood-opacity="0.35"/>
    </filter>
    <filter id="whiteGlow" x="-30%" y="-30%" width="160%" height="160%" filterUnits="objectBoundingBox">
      <feGaussianBlur stdDeviation="8" result="blur"/>
      <feMerge>
        <feMergeNode in="blur"/>
        <feMergeNode in="SourceGraphic"/>
      </feMerge>
    </filter>
    <clipPath id="rounded">
      <rect x="64" y="64" width="896" height="896" rx="232"/>
    </clipPath>
  </defs>

  <g filter="url(#shadow)">
    <rect x="64" y="64" width="896" height="896" rx="232" fill="url(#bg)"/>
    <g clip-path="url(#rounded)">
      <rect x="64" y="64" width="896" height="896" fill="url(#glow)"/>
      <path d="M96 834C262 784 376 810 520 708C642 621 738 458 928 142" stroke="#FFFFFF" stroke-opacity="0.12" stroke-width="2"/>
      <path d="M112 906H912" stroke="#FFFFFF" stroke-opacity="0.24" stroke-width="2"/>
      <path d="M112 906V178" stroke="#FFFFFF" stroke-opacity="0.24" stroke-width="2"/>
      <path d="M112 744H912M112 582H912M112 420H912M112 258H912" stroke="#FFFFFF" stroke-opacity="0.10" stroke-width="2" stroke-dasharray="8 18"/>
    </g>
    <rect x="65" y="65" width="894" height="894" rx="231" stroke="#FFFFFF" stroke-opacity="0.24" stroke-width="2"/>
  </g>

  <g filter="url(#whiteGlow)">
    <rect x="172" y="668" width="92" height="238" rx="28" fill="url(#white)" fill-opacity="0.82"/>
    <rect x="330" y="552" width="92" height="354" rx="28" fill="url(#white)" fill-opacity="0.9"/>
    <rect x="488" y="420" width="92" height="486" rx="28" fill="url(#white)"/>
    <path d="M218 648L376 530L534 398L692 282" stroke="url(#white)" stroke-width="38" stroke-linecap="round" stroke-linejoin="round"/>
    <path d="M650 278H718V346" stroke="url(#white)" stroke-width="38" stroke-linecap="round" stroke-linejoin="round"/>
    <circle cx="218" cy="648" r="15" fill="#FFFFFF"/>
    <circle cx="376" cy="530" r="15" fill="#FFFFFF"/>
    <circle cx="534" cy="398" r="15" fill="#FFFFFF"/>
    <circle cx="692" cy="282" r="15" fill="#FFFFFF"/>
  </g>

  <path d="M714 190C780 228 828 278 856 342" stroke="#FFFFFF" stroke-opacity="0.34" stroke-width="3" stroke-linecap="round"/>
  <path d="M734 178C790 204 835 242 870 294" stroke="#FFFFFF" stroke-opacity="0.18" stroke-width="3" stroke-linecap="round"/>
</svg>
